PathFileType	4	(X/Y/Z)	8_coords_data.trc
DataRate	CameraRate	NumFrames	NumMarkers	Units	OrigDataRate	OrigDataStartFrame	OrigNumFrames
30.0	30.0	7	21	m	30.0	39	48
Frame#	Time	THUMB_TIP	THUMB_IP	THUMB_MCP	THUMB_CMC	INDEX_TIP	INDEX_DIP	INDEX_PIP	INDEX_MCP	MIDDLE_TIP	MIDDLE_DIP	MIDDLE_PIP	MIDDLE_MCP	RING_TIP	RING_DIP	RING_PIP	RING_MCP	PINKY_TIP	PINKY_DIP	PINKY_PIP	PINKY_MCP	WRIST
X1	Y1	Z1	X2	Y2	Z2	X3	Y3	Z3	X4	Y4	Z4	X5	Y5	Z5	X6	Y6	Z6	X7	Y7	Z7	X8	Y8	Z8	X9	Y9	Z9	X10	Y10	Z10	X11	Y11	Z11	X12	Y12	Z12	X13	Y13	Z13	X14	Y14	Z14	X15	Y15	Z15	X16	Y16	Z16	X17	Y17	Z17	X18	Y18	Z18	X19	Y19	Z19	X20	Y20	Z20	X21	Y21	Z21
37	1.2666666666666608	0.5670732834898667	0.03429645702023709	-0.08441956076465962	0.5499264506693339	0.02083641975389583	-0.07715226959026733	0.525765237606066	0.0023545103571944725	-0.07055872666074181	0.48989736149302987	-0.015464174678834208	-0.05091489997837906	0.5642776890710279	0.10444963718780009	-0.02394357559836341	0.554346303866996	0.0918794932388739	-0.032391005327719546	0.5391313226518932	0.07567350351590885	-0.044133240069165525	0.5162406123192219	0.04200417172292925	-0.05662433974373343	0.5507186853959779	0.11318815206746558	-0.0027873844757870803	0.540049913218909	0.10129080453240835	-0.011309732853075516	0.5209409673067185	0.08468098230985965	-0.025744813104335074	0.5006195917294067	0.04819469489257877	-0.04161744508990717	0.5289621715287296	0.10860137682058968	0.011279750925703047	0.5177571202859226	0.09728369365190515	0.0028324511003536557	0.5022298346594141	0.08259820602496604	-0.009951125599140187	0.48922157020172263	0.04743592636938099	-0.02508783525550856	0.49502944092557155	0.09932933861721327	0.024126617762456615	0.49021611357943723	0.0851292650867903	0.015868906724309573	0.484314470385889	0.06825799633322427	0.0048533306040609014	0.47819132462536185	0.03673352442043909	-0.011566115416294542	0.46228308100186094	-0.023011742144276925	-0.051989820119430985
38	1.299999999999994	0.5630953247920938	0.03846032549331779	-0.08754484402635321	0.5470510974803844	0.024115567992947118	-0.07949433458745697	0.5243067262716264	0.00433172693591799	-0.07174106357784876	0.489726291666034	-0.014842767397696188	-0.051091068189506816	0.5573705215555924	0.11131320315392135	-0.027128804042406418	0.5488705121002678	0.09714514826057374	-0.03454608520186636	0.5353491610086416	0.07874730071842273	-0.045067591913015015	0.5152220387636609	0.04287167933282754	-0.05608915415858767	0.5427028528688477	0.12065322504235343	-0.006351185554375555	0.5332038363608645	0.10736069507850166	-0.014166384370859264	0.516262401846922	0.08775927887643498	-0.02751486104361678	0.4996244011100041	0.04869075695126879	-0.04140642132535366	0.5212317335765766	0.1148123554723699	0.007964817788168987	0.5113599244435805	0.10202936430465448	-4.4084836274022043e-05	0.49789743992512675	0.08482366676204522	-0.011998392079382914	0.4882221207969514	0.047862199012496	-0.025225596453966548	0.49001640015166775	0.10213730252542574	0.021205522343448274	0.4860935036935764	0.08733660902158413	0.013553701959746284	0.4813381341756856	0.0696580275788582	0.003274293517563198	0.47723605666303914	0.03717803620173077	-0.011861973235568701	0.4622830810018609	-0.023011742144276925	-0.051989820119430985
40	1.3333333333333337	0.5591763797333752	0.04162796366144961	-0.0913966099344316	0.5442013905743552	0.02673745502647651	-0.08233998516142538	0.5227703580191916	0.006003323545965333	-0.07341660937821437	0.48958723643026114	-0.014350004101176261	-0.051633301656420605	0.5522101011062819	0.1162051560392604	-0.031363558299119076	0.5447677833333222	0.10094330539375518	-0.03766338536345837	0.5324501681946068	0.08103466395229031	-0.04682483646302088	0.5140638695159254	0.04377970561056366	-0.056186897873550745	0.5357813215437622	0.1265956773649607	-0.010530305119308914	0.5280010931293467	0.11176030354906685	-0.017413598630573568	0.5133523250094161	0.08963200718185371	-0.02946190317740871	0.4987916986093451	0.049119576647716934	-0.04141510576308871	0.5156864308426867	0.11944307538303633	0.004323268708014305	0.5073026385810873	0.10524861602762281	-0.0029725760629395748	0.4958316375517824	0.08596507158996469	-0.013777252286989894	0.4877498545536222	0.04806597091226994	-0.025312579997662343	0.4881863362068778	0.1037730233306382	0.01857228673444153	0.48470322548720035	0.08855305525706503	0.01155655359000926	0.48043121386517174	0.07035087407610596	0.002004457696605233	0.4771742919932943	0.03725156908427929	-0.011949463615288924	0.4622830810018609	-0.023011742144276925	-0.051989820119430985
41	1.3666666666666671	0.5555033735287599	0.044183460586361245	-0.09500029089156686	0.5414990605411987	0.02891050046378485	-0.08506973668545054	0.5212573049705348	0.007461433662782846	-0.07511841191014257	0.4894307507771538	-0.01386874321057785	-0.052271442686043446	0.5476993648899636	0.12008104894134708	-0.03590939075543542	0.5411449270128769	0.10402489697135264	-0.04112852172063003	0.5298468634692843	0.08296561428839933	-0.04893045776525429	0.512867087271471	0.04466548363642242	-0.0565739704599304	0.5295748601906944	0.13108962974897542	-0.014833469900454033	0.5234110300408097	0.11516126334927335	-0.020857948443881058	0.5109953027747327	0.09109865491437419	-0.03163988434441012	0.49805352081590015	0.04952001518496518	-0.04163362833663076	0.5110281471524308	0.12293780207016702	0.0005663421222346643	0.5040345174947867	0.10769627963650008	-0.00605069181418641	0.4944561130194514	0.08683264386236333	-0.015701746108461312	0.48750767214962804	0.04823570818150624	-0.02553620387319616	0.4874056479488248	0.10510755037591246	0.015842462364238086	0.48420484789999624	0.08954769897474879	0.009467048383865861	0.4802121017080322	0.07091349136573133	0.0006559018279067019	0.477427159800218	0.03729654039355723	-0.012112346168766358	0.4622830810018609	-0.023011742144276925	-0.051989820119430985
42	1.4000000000000006	0.5523062566952935	0.04616058975822468	-0.0980509359702163	0.5391224427212012	0.030631298432062914	-0.08741946570483333	0.51989063662231	0.00866076444733821	-0.07663738470899978	0.48926321029892217	-0.013423208492992944	-0.052885565915985866	0.5439215275410232	0.12299382944829207	-0.0401444646995347	0.5380596654021677	0.10640608197337198	-0.044443907218435774	0.5275679380810896	0.08453802327535964	-0.051056130717413994	0.5116768777222502	0.04549863630984341	-0.05714189772153133	0.5243848628275745	0.13427647238588714	-0.018767684069774304	0.5195861393442422	0.11763962809787298	-0.024076889760542786	0.5091150310062764	0.09222139459232104	-0.03375567303282556	0.49734087862676546	0.04991806793910125	-0.04199859792724581	0.507322258577043	0.12542125744024868	-0.002884813990407409	0.5015084190821083	0.1094567429827844	-0.008912545608898176	0.4935430461846645	0.08749374208931093	-0.0175357355846526	0.48731416678455597	0.04841949521667388	-0.025849887781667524	0.48721747596928894	0.10616514597592852	0.013296479197052125	0.4841771939816927	0.09034985264105488	0.007497066970989896	0.4803155690620621	0.07138300528651598	-0.00063672509727139	0.4777345532105056	0.037360077868647146	-0.012326986774943594	0.46228308100186083	-0.023011742144276925	-0.051989820119430985
43	1.433333333333334	0.5498278118429738	0.04760822412755772	-0.10025862728056478	0.5372656071037168	0.03190952385367707	-0.0891346971387556	0.5188118185382424	0.009567940447616108	-0.07777110006341043	0.4891027744547858	-0.013035736999002179	-0.05335109872154997	0.5409868669129514	0.12501834520234723	-0.04342525098312211	0.5355967876973315	0.10811963440301908	-0.04708320387647841	0.5256605117723603	0.08575883288839703	-0.05285163601758186	0.5105412836347519	0.04625267509552533	-0.05778200425612878	0.5205630817757843	0.13631513289511554	-0.021752107667063314	0.5167482380125759	0.11927571283459626	-0.026558887364894312	0.5076653758935178	0.09305118464758899	-0.03545749889114064	0.4965829612909336	0.05033730864193464	-0.04244697699397659	0.504698765454898	0.12701719060644068	-0.005510065439524731	0.4997308216204423	0.11061486706184287	-0.011103214498509567	0.4928827754029685	0.0880043878054485	-0.018980426556052865	0.4869853587269075	0.04866334793964944	-0.026207036606867573	0.48715840599903665	0.10696584252391483	0.011264821037491685	0.48418965369811545	0.09098492936495439	0.005898544452974247	0.4803668632232461	0.07179501052807202	-0.001713637035870741	0.4778290764811499	0.03749256377357191	-0.012566527715608511	0.4622830810018609	-0.023011742144276925	-0.051989820119430985
44	1.4666666666666672	0.548311259611352	0.04857475131671485	-0.10133454901591299	0.5361264788997628	0.032756962892518726	-0.08996227183067618	0.5181698070487591	0.010155341593669487	-0.07831990735009181	0.4889754749448339	-0.012726841172675307	-0.05354115264261472	0.5390154128050575	0.12621687055342523	-0.04509013120913852	0.5338504695724652	0.10919669785461295	-0.048501448067289565	0.5241800901211017	0.08664057387718294	-0.05395258238791051	0.509511620153737	0.04690621380221682	-0.05838572035660411	0.5185093630636766	0.13731654922727876	-0.023137255878567853	0.5151606431959633	0.12012102104786637	-0.02773071708757069	0.5066054799400792	0.09362866710077111	-0.036354748279942395	0.4957073814658706	0.05079956867622493	-0.04291582279460893	0.5033391164418266	0.12780470275154965	-0.006715551647640511	0.49873641868468366	0.1112288150911852	-0.012105831939737688	0.49225893240352203	0.08841211066035437	-0.01969662566592148	0.48633444759648303	0.04901028928016704	-0.0265608652956969	0.486749236254276	0.1075302062358674	0.010111083508972524	0.48379600784003635	0.09147912387213597	0.004949572404069402	0.47997869655409353	0.07218548822741944	-0.0023986094904632493	0.47743793547366964	0.03774429257668477	-0.012802071716089353	0.4622830810018609	-0.023011742144276925	-0.051989820119430985
